<svg xmlns="http://www.w3.org/2000/svg" viewBox="0 0 256 256">
<defs>
<linearGradient id="bg" x1="0" y1="0" x2="1" y2="1"><stop offset="0%" stop-color="#8b7cff"/><stop offset="52%" stop-color="#5366ff"/><stop offset="100%" stop-color="#22d3ee"/></linearGradient>
<radialGradient id="shine" cx="28%" cy="18%" r="70%"><stop offset="0%" stop-color="#fff" stop-opacity=".42"/><stop offset="55%" stop-color="#fff" stop-opacity=".04"/><stop offset="100%" stop-color="#fff" stop-opacity="0"/></radialGradient>
</defs>
<circle cx="128" cy="128" r="112" fill="url(#bg)"/><circle cx="128" cy="128" r="112" fill="url(#shine)"/>
<path d="M65 105c5-47 32-71 63-71s59 24 64 71c-15-12-35-18-64-18s-48 6-63 18Z" fill="#10162d"/>
<path d="M73 107c8-24 26-39 55-41 29 2 47 17 55 41-12-9-28-13-55-13s-43 4-55 13Z" fill="#1b2446"/>
<ellipse cx="128" cy="133" rx="58" ry="67" fill="#c98f72"/>
<path d="M83 124c8-25 24-38 45-38s37 13 45 38c-12-10-27-15-45-15s-33 5-45 15Z" fill="#10162d"/>
<ellipse cx="106" cy="133" rx="7" ry="5" fill="#11152a"/><ellipse cx="150" cy="133" rx="7" ry="5" fill="#11152a"/>
<circle cx="108" cy="132" r="1.5" fill="#fff"/><circle cx="152" cy="132" r="1.5" fill="#fff"/>
<path d="M128 137c-4 8-5 14 2 16" fill="none" stroke="#a66f59" stroke-width="4" stroke-linecap="round"/>
<path d="M108 162c11 9 29 9 40 0" fill="none" stroke="#7e443f" stroke-width="4" stroke-linecap="round"/>
<path d="M69 228c8-39 30-57 59-57s51 18 59 57Z" fill="#10162d"/>
<path d="M99 186c9 8 19 12 29 12s20-4 29-12l13 42H86Z" fill="#1a2448"/>
<circle cx="128" cy="128" r="108" fill="none" stroke="#fff" stroke-opacity=".16" stroke-width="3"/>
</svg>
